<svg xmlns="http://www.w3.org/2000/svg"  viewBox="0 0 64 64" width="50px" height="50px"><radialGradient id="Hr6W9yd9KbvxyDv~W9Qyva" cx="32" cy="1166.5" r="30.301" gradientTransform="translate(0 -1134)" gradientUnits="userSpaceOnUse"><stop offset="0" stop-color="#f7e9c2"/><stop offset=".644" stop-color="#fff3db"/><stop offset="1" stop-color="#fff5e0"/></radialGradient><path fill="url(#Hr6W9yd9KbvxyDv~W9Qyva)" d="M63.99,36.31C64.1,38.33,62.5,40,60.5,40c0,0-9.5-0.011-9.5,0v5.98	c0,0.011,0.009,0.02,0.02,0.02h9.48c1.58,0,2.81,1.46,2.43,3.11C62.66,50.25,61.54,51,60.37,51H59.5c-0.825,0-1.5,0.675-1.5,1.5l0,0	c0,0.825,0.675,1.5,1.5,1.5l0,0c2,0,3.6,1.67,3.49,3.69C62.9,59.58,61.2,61,59.3,61H4c-2.48,0-4.43-2.26-3.92-4.82	C0.47,54.29,2.25,53,4.18,53H5c2.92,0,5.26-2.51,4.98-5.49C9.73,44.91,7.4,43,4.78,43H4c-2.48,0-4.43-2.26-3.92-4.82	C0.47,36.29,2.07,35,4,35l0,0c1.3,0,2.331-1.251,1.899-2.632C5.635,31.521,4.777,31,3.89,31H3.5c-2,0-3.6-1.67-3.49-3.69	C0.1,25.42,1.8,24,3.7,24h7.28c0.011,0,0.02-0.009,0.02-0.02v-4.96c0-0.011-0.009-0.02-0.02-0.02H3.5	c-1.577,0-2.805-1.445-2.432-3.09C1.329,14.757,2.448,14,3.63,14H4.5C5.33,14,6,13.33,6,12.5S5.33,11,4.5,11h-1	c-2,0-3.6-1.67-3.49-3.69C0.1,5.42,1.8,4,3.7,4H60c2.34,0,4.21,2.01,3.98,4.39c-0.19,2.05-2,3.56-4.04,3.61H56.5	c-2.485,0-4.5,2.015-4.5,4.5v0c0,2.485,2.015,4.5,4.5,4.5H60c2.48,0,4.43,2.26,3.92,4.82C63.53,27.71,61.93,29,60,29l0,0	c-1.1,0-2,0.9-2,2l0,0c0,1.1,0.9,2,2,2h0.3C62.2,33,63.9,34.42,63.99,36.31z"/><linearGradient id="Hr6W9yd9KbvxyDv~W9Qyvb" x1="8.041" x2="55.375" y1="1189.959" y2="1142.625" gradientTransform="translate(0 -1134)" gradientUnits="userSpaceOnUse"><stop offset=".069" stop-color="#00337a"/><stop offset=".178" stop-color="#044084"/><stop offset=".381" stop-color="#0f619e"/><stop offset=".652" stop-color="#2198c9"/><stop offset=".955" stop-color="#38dcff"/></linearGradient><path fill="url(#Hr6W9yd9KbvxyDv~W9Qyvb)" d="M56,17v30c0,4.97-4.03,9-9,9H17c-4.97,0-9-4.03-9-9V17c0-4.97,4.03-9,9-9h30	C51.97,8,56,12.03,56,17z"/><path fill="#fff" d="M37.023,20.316c0.192-0.115,0.392-0.238,0.6-0.346c0.538-0.276,1.138-0.415,1.746-0.385	c0.439,0.024,0.838,0.147,1.146,0.469c0.292,0.3,0.4,0.669,0.431,1.069c0.008,0.085,0.008,0.169,0.008,0.262v3.983	c0,0.346-0.046,0.392-0.392,0.392h-0.938c-0.062,0-0.123,0-0.185-0.008c-0.092-0.008-0.169-0.085-0.185-0.177	c-0.016-0.085-0.016-0.169-0.016-0.254V21.76c0.008-0.147-0.008-0.284-0.046-0.423c-0.062-0.238-0.276-0.407-0.523-0.423	c-0.453-0.03-0.908,0.062-1.323,0.254c-0.062,0.016-0.1,0.077-0.092,0.139v4.044c0,0.077,0,0.147-0.016,0.223	c0,0.107-0.085,0.185-0.192,0.185l0,0c-0.115,0.008-0.231,0.008-0.354,0.008h-0.815c-0.284,0-0.346-0.069-0.346-0.354v-3.637	c0-0.131-0.008-0.27-0.038-0.4c-0.054-0.262-0.276-0.447-0.538-0.461c-0.461-0.03-0.93,0.062-1.346,0.262	c-0.062,0.016-0.1,0.085-0.085,0.147v4.099c0,0.284-0.062,0.346-0.346,0.346h-1.031c-0.27,0-0.338-0.077-0.338-0.338v-5.337	c0-0.062,0.008-0.123,0.024-0.185c0.03-0.092,0.123-0.147,0.215-0.147h0.961c0.139,0,0.223,0.085,0.27,0.215	c0.038,0.107,0.062,0.208,0.1,0.323c0.077,0,0.123-0.054,0.177-0.085c0.423-0.262,0.868-0.485,1.369-0.576	c0.385-0.077,0.769-0.077,1.154,0c0.361,0.077,0.685,0.292,0.892,0.6c0.016,0.024,0.03,0.038,0.046,0.054	C37.007,20.301,37.015,20.301,37.023,20.316z M25.657,20.608c0.054-0.016,0.1-0.046,0.131-0.092c0.139-0.139,0.284-0.27,0.439-0.392	c0.4-0.308,0.9-0.461,1.4-0.423c0.2,0.008,0.27,0.069,0.284,0.262c0.016,0.262,0.008,0.53,0.008,0.792	c0.008,0.107,0,0.208-0.016,0.316c-0.03,0.139-0.085,0.192-0.223,0.208c-0.107,0.008-0.208,0-0.316-0.008	c-0.515-0.046-1.015,0.054-1.5,0.215c-0.107,0.038-0.107,0.115-0.107,0.2v3.691c0,0.069,0,0.131-0.008,0.2	c-0.008,0.1-0.085,0.177-0.185,0.177c-0.054,0.008-0.115,0.008-0.169,0.008h-1c-0.054,0-0.115,0-0.169-0.008	c-0.1-0.008-0.177-0.092-0.185-0.192c-0.008-0.062-0.008-0.123-0.008-0.185v-5.23c0-0.354,0.038-0.392,0.392-0.392h0.739	c0.2,0,0.292,0.069,0.346,0.262C25.566,20.209,25.611,20.401,25.657,20.608z M28.656,22.746v-2.729	c0.008-0.185,0.077-0.254,0.262-0.262c0.4-0.008,0.8-0.008,1.2,0c0.177,0,0.231,0.054,0.246,0.231	c0.008,0.069,0.008,0.131,0.008,0.2v5.121c0,0.085-0.008,0.169-0.016,0.254c-0.008,0.1-0.085,0.169-0.185,0.177	c-0.046,0.008-0.085,0.008-0.131,0.008h-1.069c-0.038,0-0.069,0-0.107-0.008c-0.107-0.008-0.2-0.092-0.208-0.2	c-0.008-0.062-0.008-0.123-0.008-0.185C28.656,24.499,28.656,23.623,28.656,22.746z M29.548,17.002	c0.123-0.008,0.246,0.016,0.361,0.054c0.415,0.139,0.63,0.5,0.592,0.969c-0.03,0.4-0.33,0.723-0.731,0.784	c-0.169,0.03-0.346,0.03-0.515,0c-0.439-0.085-0.761-0.407-0.731-0.961C28.571,17.301,28.933,17.002,29.548,17.002z M22.897,22.116	c-0.03-0.4-0.139-0.792-0.3-1.154c-0.316-0.661-0.8-1.146-1.538-1.315c-0.846-0.185-1.607,0-2.3,0.515	c-0.046,0.046-0.1,0.085-0.161,0.115c-0.016-0.008-0.03-0.016-0.03-0.024c-0.024-0.077-0.038-0.153-0.062-0.231	c-0.062-0.192-0.139-0.262-0.346-0.262c-0.231,0-0.469,0.008-0.699,0c-0.177-0.008-0.338,0.016-0.461,0.153	c0,2.691,0,5.391,0.008,8.074c0.1,0.161,0.254,0.192,0.431,0.185c0.276-0.008,0.554,0,0.83,0c0.485,0,0.485,0,0.485-0.477v-2.191	c0-0.054-0.024-0.115,0.03-0.161c0.385,0.3,0.854,0.485,1.338,0.53c0.677,0.069,1.291-0.1,1.807-0.562	c0.377-0.346,0.654-0.792,0.8-1.285C22.936,23.4,22.95,22.761,22.897,22.116z M21.059,23.707c-0.054,0.238-0.177,0.453-0.354,0.616	c-0.2,0.169-0.447,0.27-0.707,0.27c-0.392,0.024-0.777-0.062-1.122-0.246c-0.085-0.038-0.139-0.123-0.131-0.215v-1.392	c0-0.461,0.008-0.923,0-1.384c-0.008-0.107,0.054-0.2,0.153-0.238c0.423-0.2,0.862-0.292,1.323-0.2	c0.323,0.046,0.6,0.254,0.731,0.554c0.115,0.246,0.185,0.515,0.2,0.784C21.198,22.746,21.198,23.238,21.059,23.707z M43.76,23.246	c0.576,0.107,1.168,0.115,1.746,0.024c0.338-0.046,0.661-0.147,0.961-0.308c0.346-0.2,0.6-0.477,0.707-0.862	c0.27-0.969-0.147-1.946-1.154-2.306c-0.492-0.161-1.015-0.215-1.53-0.147c-1.215,0.139-2.007,0.808-2.368,1.968	c-0.254,0.792-0.223,1.599-0.016,2.399c0.27,1.023,0.946,1.631,1.968,1.845c0.584,0.131,1.176,0.107,1.761,0.016	c0.308-0.054,0.616-0.131,0.908-0.246c0.177-0.069,0.27-0.177,0.262-0.377c-0.008-0.185,0-0.377,0-0.569	c0-0.231-0.092-0.3-0.316-0.246c-0.224,0.054-0.439,0.1-0.661,0.147c-0.477,0.1-0.969,0.1-1.446,0.016	c-0.654-0.131-1.077-0.692-1.039-1.384C43.613,23.224,43.69,23.23,43.76,23.246z M43.567,22.07c0.024-0.185,0.077-0.361,0.147-0.53	c0.231-0.562,0.715-0.753,1.208-0.723c0.139,0.008,0.276,0.038,0.407,0.092c0.2,0.085,0.33,0.27,0.354,0.485	c0.024,0.131,0.016,0.27-0.023,0.4c-0.092,0.276-0.316,0.392-0.584,0.447c-0.161,0.038-0.33,0.054-0.5,0.038	c-0.3,0-0.608-0.024-0.908-0.069C43.552,22.193,43.552,22.193,43.567,22.07z"/><path fill="#fff" d="M19.902,36.067c0.049-0.165,0.098-0.322,0.149-0.487c0.379-1.279,0.759-2.549,1.138-3.828	l0.049-0.149c0.041-0.149,0.181-0.239,0.33-0.239h1.255c0.313,0,0.379,0.091,0.272,0.388L22.6,33.063	c-0.553,1.436-1.106,2.879-1.658,4.315c-0.017,0.049-0.041,0.098-0.058,0.149c-0.058,0.173-0.231,0.289-0.413,0.272	c-0.363-0.008-0.726-0.008-1.089,0c-0.256,0.008-0.404-0.107-0.495-0.338c-0.206-0.545-0.421-1.098-0.627-1.642	c-0.495-1.296-0.998-2.591-1.494-3.894c-0.049-0.098-0.083-0.215-0.107-0.322c-0.025-0.165,0.032-0.247,0.198-0.247	c0.47-0.008,0.941,0,1.402,0c0.198,0,0.289,0.132,0.338,0.306c0.091,0.313,0.181,0.636,0.281,0.949	c0.338,1.147,0.668,2.302,1.007,3.449C19.877,36.067,19.886,36.067,19.902,36.067z M25.745,34.582v2.97	c-0.017,0.165-0.091,0.239-0.256,0.247c-0.445,0.008-0.883,0.008-1.328,0c-0.165,0-0.239-0.083-0.256-0.239	c-0.008-0.049-0.008-0.107-0.008-0.157v-5.71c0.008-0.256,0.074-0.33,0.33-0.33h1.188c0.256,0,0.33,0.074,0.33,0.33V34.582	L25.745,34.582z M24.828,28.401c0.165-0.017,0.33,0.017,0.487,0.083c0.322,0.124,0.545,0.421,0.561,0.768	c0.066,0.751-0.438,1.13-1.106,1.114c-0.091,0-0.181-0.017-0.272-0.032c-0.511-0.124-0.776-0.52-0.726-1.089	c0.041-0.454,0.396-0.792,0.883-0.834C24.713,28.401,24.771,28.393,24.828,28.401z M47.338,34.103	c0.008-0.094-0.025-0.289-0.025-0.297c-0.017-0.157-0.049-0.313-0.091-0.462c-0.306-1.089-0.99-1.807-2.104-2.087	c-0.52-0.124-1.047-0.14-1.576-0.058c-1.113,0.165-1.915,0.759-2.302,1.815c-0.379,1.007-0.372,2.113,0.008,3.119	c0.33,0.915,0.99,1.494,1.939,1.732c0.504,0.124,1.032,0.157,1.551,0.083c1.732-0.206,2.451-1.519,2.566-2.657	c0,0,0.041-0.342,0.041-0.499L47.338,34.103z M45.358,35.637c-0.049,0.173-0.124,0.33-0.231,0.479	c-0.181,0.256-0.47,0.421-0.783,0.445c-0.157,0.017-0.313,0.017-0.47-0.017c-0.347-0.066-0.636-0.297-0.776-0.619	c-0.124-0.256-0.198-0.536-0.223-0.817c-0.041-0.487-0.049-0.974,0.066-1.453c0.041-0.19,0.124-0.379,0.223-0.545	c0.181-0.297,0.495-0.487,0.842-0.511c0.157-0.017,0.313-0.017,0.47,0.017c0.33,0.066,0.602,0.281,0.751,0.585	c0.14,0.289,0.223,0.611,0.239,0.932c0.008,0.149,0.017,0.297,0.008,0.445C45.498,34.944,45.456,35.299,45.358,35.637z M32.873,28.459h-1.147c-0.313,0-0.372,0.058-0.372,0.372v2.674c0,0.058,0.025,0.115-0.017,0.173	c-0.074-0.008-0.115-0.058-0.173-0.091c-0.858-0.504-1.757-0.594-2.666-0.173c-0.636,0.297-1.032,0.834-1.287,1.468	c-0.247,0.611-0.306,1.255-0.289,1.906c0,0.611,0.14,1.213,0.413,1.757c0.313,0.602,0.768,1.064,1.428,1.262	c0.9,0.281,1.741,0.14,2.508-0.429c0.058-0.032,0.091-0.091,0.165-0.107c0.041,0.091,0.074,0.19,0.091,0.289	c0.032,0.132,0.149,0.223,0.289,0.223h0.198c0.297,0,0.585,0.008,0.875,0c0.231,0,0.297-0.074,0.306-0.313v-8.696	C33.187,28.516,33.121,28.459,32.873,28.459z M31.364,34.531v1.502c0.017,0.098-0.041,0.19-0.132,0.231	c-0.396,0.223-0.849,0.313-1.296,0.247c-0.379-0.041-0.71-0.272-0.883-0.611c-0.132-0.264-0.206-0.545-0.231-0.834	c-0.066-0.52-0.025-1.047,0.098-1.551c0.041-0.14,0.091-0.272,0.165-0.404c0.173-0.322,0.504-0.528,0.866-0.553	c0.438-0.041,0.875,0.041,1.27,0.223c0.098,0.032,0.157,0.132,0.149,0.239C31.355,33.533,31.364,34.029,31.364,34.531L31.364,34.531	z M37.857,35.184c0.479-0.032,0.957-0.124,1.387-0.355c0.438-0.215,0.743-0.619,0.834-1.098c0.058-0.297,0.058-0.611-0.008-0.908	c-0.173-0.743-0.643-1.204-1.353-1.444c-0.396-0.124-0.817-0.173-1.23-0.157c-1.387,0.032-2.442,0.734-2.872,2.121	c-0.289,0.915-0.247,1.849,0.032,2.764c0.289,0.941,0.949,1.51,1.889,1.766c0.311,0.076,0.633,0.118,0.953,0.126	c0.095,0.002,0.19,0.002,0.285-0.002c0.602-0.008,1.204-0.124,1.774-0.338c0.239-0.091,0.297-0.173,0.297-0.429v-0.594	c-0.008-0.239-0.107-0.322-0.347-0.264c-0.181,0.049-0.355,0.091-0.536,0.132c-0.553,0.132-1.13,0.157-1.692,0.058	c-0.561-0.107-0.941-0.429-1.089-0.99c-0.041-0.165-0.074-0.33-0.091-0.504c0.041,0,0.083,0,0.115,0.017	C36.751,35.184,37.304,35.225,37.857,35.184z M36.132,33.863c0.058-0.322,0.132-0.636,0.33-0.9c0.306-0.404,0.726-0.52,1.204-0.47	c0.041,0,0.074,0.017,0.115,0.017c0.577,0.091,0.717,0.553,0.611,0.998c-0.083,0.33-0.355,0.454-0.66,0.511	c-0.165,0.032-0.338,0.049-0.511,0.041c-0.338-0.008-0.668-0.032-0.998-0.083C36.149,33.971,36.117,33.938,36.132,33.863	L36.132,33.863z"/><path fill="#fff" d="M32.468,47c-0.289-0.007-0.578-0.007-0.867,0c-0.397-0.022-0.794-0.036-1.193-0.065	c-1.055-0.079-2.103-0.237-3.129-0.474c-3.548-0.818-6.663-2.462-9.381-4.853c-0.254-0.223-0.491-0.452-0.738-0.682	c-0.058-0.05-0.109-0.122-0.138-0.194c-0.043-0.101-0.022-0.209,0.051-0.287c0.072-0.078,0.188-0.108,0.289-0.065	c0.065,0.029,0.13,0.058,0.188,0.094c2.595,1.594,5.427,2.758,8.398,3.446c0.997,0.23,2.002,0.409,3.013,0.539	c1.452,0.18,2.919,0.245,4.379,0.194c0.787-0.022,1.568-0.094,2.348-0.194c1.821-0.23,3.621-0.639,5.363-1.214	c0.918-0.301,1.813-0.647,2.689-1.048c0.13-0.072,0.289-0.094,0.433-0.058c0.239,0.058,0.383,0.301,0.325,0.539	c-0.007,0.029-0.022,0.065-0.036,0.094c-0.058,0.108-0.138,0.202-0.239,0.272c-0.831,0.647-1.728,1.214-2.674,1.688	c-1.786,0.897-3.693,1.536-5.659,1.902C34.759,46.834,33.617,46.957,32.468,47z M44.891,40c0.477,0.014,0.947,0.043,1.409,0.166	c0.13,0.036,0.254,0.079,0.375,0.137c0.167,0.065,0.274,0.223,0.296,0.395c0.029,0.202,0.036,0.409,0.022,0.618	c-0.094,1.228-0.477,2.412-1.113,3.468c-0.232,0.38-0.513,0.726-0.838,1.027c-0.065,0.065-0.145,0.115-0.232,0.144	c-0.138,0.036-0.225-0.036-0.232-0.173c0.007-0.072,0.022-0.144,0.051-0.216c0.254-0.675,0.499-1.342,0.694-2.039	c0.116-0.38,0.196-0.768,0.246-1.163c0.014-0.144,0.022-0.287,0.007-0.431c-0.007-0.245-0.167-0.452-0.404-0.524	c-0.225-0.072-0.455-0.115-0.694-0.13c-0.665-0.029-1.329,0-1.987,0.086l-0.874,0.108c-0.094,0.007-0.181,0-0.232-0.086	c-0.051-0.086-0.029-0.173,0.022-0.258c0.058-0.079,0.13-0.151,0.217-0.202c0.535-0.38,1.135-0.611,1.771-0.762	C43.886,40.064,44.385,40.014,44.891,40z"/></svg>